<svg xmlns="http://www.w3.org/2000/svg" width="200" height="200" viewBox="0 0 200 200">
  <!-- Background Circle -->
  <circle cx="100" cy="100" r="90" fill="#2563EB"/>
  
  <!-- Brain/AI Symbol -->
  <path d="M100 40 C70 40 50 60 50 90 C50 110 60 125 80 135 L80 155 L120 155 L120 135 C140 125 150 110 150 90 C150 60 130 40 100 40 Z" fill="white"/>
  
  <!-- Neural Network Dots -->
  <circle cx="75" cy="80" r="6" fill="#2563EB"/>
  <circle cx="100" cy="65" r="6" fill="#2563EB"/>
  <circle cx="125" cy="80" r="6" fill="#2563EB"/>
  <circle cx="85" cy="105" r="5" fill="#2563EB"/>
  <circle cx="115" cy="105" r="5" fill="#2563EB"/>
  <circle cx="100" cy="125" r="5" fill="#2563EB"/>
  
  <!-- Neural Network Lines -->
  <line x1="75" y1="80" x2="100" y2="65" stroke="#2563EB" stroke-width="2"/>
  <line x1="100" y1="65" x2="125" y2="80" stroke="#2563EB" stroke-width="2"/>
  <line x1="75" y1="80" x2="85" y2="105" stroke="#2563EB" stroke-width="2"/>
  <line x1="125" y1="80" x2="115" y2="105" stroke="#2563EB" stroke-width="2"/>
  <line x1="85" y1="105" x2="115" y2="105" stroke="#2563EB" stroke-width="2"/>
  <line x1="85" y1="105" x2="100" y2="125" stroke="#2563EB" stroke-width="2"/>
  <line x1="115" y1="105" x2="100" y2="125" stroke="#2563EB" stroke-width="2"/>
  
  <!-- Text: TI -->
  <text x="100" y="175" font-family="Arial, sans-serif" font-size="18" font-weight="bold" fill="white" text-anchor="middle">TALENT INTELLIGENCE</text>
</svg>